<?xml version="1.0" standalone="no"?><!DOCTYPE svg PUBLIC "-//W3C//DTD SVG 1.1//EN" "http://www.w3.org/Graphics/SVG/1.1/DTD/svg11.dtd"><svg class="icon" width="200px" height="200.00px" viewBox="0 0 1024 1024" version="1.1" xmlns="http://www.w3.org/2000/svg"><path fill="#ffffff" d="M981.333333 130.986667L935.381333 85.333333 384 717.653333V1024h65.621333v-280.32z"  /><path fill="#ffffff" d="M939.733333 110.890667L829.568 913.066667l-285.184-169.557334L512 802.261333 874.922667 1024 1024 0 0 515.242667l317.568 156.586666 32.426667-58.752-200.96-97.834666z"  /><path fill="#ffffff" d="M981.333333 130.986667L935.381333 85.333333 384 717.653333V1024h65.621333v-280.32z"  /><path fill="#ffffff" d="M939.733333 110.890667L829.568 913.066667l-285.184-169.557334L512 802.261333 874.922667 1024 1024 0 0 515.242667l317.568 156.586666 32.426667-58.752-200.96-97.834666z"  /></svg>